<?xml version="1.0" encoding="UTF-8" standalone="no"?>
<svg width="65px" height="56px" viewBox="0 0 65 56" version="1.1" xmlns="http://www.w3.org/2000/svg" xmlns:xlink="http://www.w3.org/1999/xlink">
    <!-- Generator: Sketch 3.8.3 (29802) - http://www.bohemiancoding.com/sketch -->
    <title>Shape</title>
    <desc>Created with Sketch.</desc>
    <defs></defs>
    <g id="Page-1" stroke="none" stroke-width="1" fill="none" fill-rule="evenodd">
        <g id="getlaps.com" transform="translate(-1251.000000, -546.000000)" fill="#9D7FEF">
            <path d="M1309.5029,555.918692 C1312.73771,555.918692 1315.35045,558.531424 1315.35045,561.766235 L1315.35045,595.980582 C1315.35045,599.215393 1312.73771,601.828125 1309.5029,601.828125 L1257.4971,601.828125 C1254.26229,601.828125 1251.64955,599.215393 1251.64955,595.980582 L1251.64955,561.766235 C1251.64955,558.531424 1254.26229,555.918692 1257.4971,555.918692 L1268.44569,555.918692 L1268.44569,553.057129 C1268.44569,549.200239 1271.55608,546.089844 1275.41297,546.089844 L1291.58703,546.089844 C1295.44392,546.089844 1298.4299,549.200239 1298.4299,553.057129 L1298.4299,555.918692 L1309.5029,555.918692 L1309.5029,555.918692 Z M1270.80959,553.057129 L1270.80959,555.918692 L1296.19041,555.918692 L1296.19041,553.057129 C1296.19041,550.444397 1294.19976,548.453744 1291.58703,548.453744 L1275.41297,548.453744 C1272.80024,548.453744 1270.80959,550.444397 1270.80959,553.057129 L1270.80959,553.057129 Z M1312.98655,595.980582 L1312.98655,572.217163 L1287.97897,572.217163 L1287.97897,574.332232 C1287.97897,576.696132 1285.98832,578.562369 1283.62442,578.562369 C1281.26052,578.562369 1279.39428,576.696132 1279.39428,574.332232 L1279.39428,572.217163 L1254.01345,572.217163 L1254.01345,595.980582 C1254.01345,597.846819 1255.63086,599.464225 1257.4971,599.464225 L1309.5029,599.464225 C1311.36914,599.464225 1312.98655,597.846819 1312.98655,595.980582 L1312.98655,595.980582 Z M1281.63376,574.332232 C1281.63376,575.451974 1282.50467,576.322885 1283.62442,576.322885 C1284.74416,576.322885 1285.61507,575.451974 1285.61507,574.332232 L1285.61507,568.982352 C1285.61507,567.86261 1284.74416,566.991699 1283.62442,566.991699 C1282.50467,566.991699 1281.63376,567.86261 1281.63376,568.982352 L1281.63376,574.332232 L1281.63376,574.332232 Z M1312.98655,569.853263 L1312.98655,561.766235 C1312.98655,559.899998 1311.36914,558.282593 1309.5029,558.282593 L1257.4971,558.282593 C1255.63086,558.282593 1254.01345,559.899998 1254.01345,561.766235 L1254.01345,569.853263 L1279.39428,569.853263 L1279.39428,568.982352 C1279.39428,566.618452 1281.26052,564.627799 1283.62442,564.627799 C1285.98832,564.627799 1287.97897,566.618452 1287.97897,568.982352 L1287.97897,569.853263 L1312.98655,569.853263 L1312.98655,569.853263 Z" id="Shape"></path>
        </g>
    </g>
</svg>