<?xml version="1.0" encoding="UTF-8" standalone="no"?>
<svg width="21px" height="17px" viewBox="0 0 21 17" version="1.1" xmlns="http://www.w3.org/2000/svg" xmlns:xlink="http://www.w3.org/1999/xlink">
    <!-- Generator: Sketch 3.8.3 (29802) - http://www.bohemiancoding.com/sketch -->
    <title>Group 7</title>
    <desc>Created with Sketch.</desc>
    <defs></defs>
    <g id="Page-1" stroke="none" stroke-width="1" fill="none" fill-rule="evenodd">
        <g id="getlaps.com" transform="translate(-1066.000000, -308.000000)" fill="#FFFFFF">
            <g id="Group-3" transform="translate(889.000000, 289.000000)">
                <g id="Group-7" transform="translate(177.000000, 19.000000)">
                    <path d="M19.7860319,9.00664748 C19.6846674,9.00664748 19.5794042,8.96766112 19.5014315,8.88968841 L11.4780397,1.14309972 C11.314297,0.987154301 11.3103984,0.725945724 11.4663438,0.562203034 C11.6222892,0.398460344 11.8834978,0.394561708 12.0472405,0.550507127 L20.0706323,8.30099446 C20.234375,8.45693988 20.2382736,8.71814845 20.0823282,8.88189114 C20.0004569,8.96766112 19.8912951,9.00664748 19.7860319,9.00664748 L19.7860319,9.00664748 Z" id="Shape"></path>
                    <path d="M11.4663438,16.6362771 C11.3103984,16.4725344 11.314297,16.2113258 11.4780397,16.0553804 L18.7684881,9.01054611 L0.643731725,9.01054611 C0.417610867,9.00664748 0.234375,8.82341161 0.234375,8.59729075 C0.234375,8.3711699 0.417610867,8.18793403 0.643731725,8.18793403 L19.7821333,8.18793403 C19.9497746,8.18793403 20.1018214,8.28929855 20.1641996,8.44524397 C20.2265777,8.60118939 20.1875914,8.77662798 20.0706323,8.89358705 L12.0472405,16.6440744 C11.9692678,16.7220471 11.8640046,16.7610334 11.7626401,16.7610334 C11.6534783,16.7610334 11.5482152,16.7181485 11.4663438,16.6362771 Z" id="Shape"></path>
                </g>
            </g>
        </g>
    </g>
</svg>